# xmcd
#
# Track frame offsets: 
#        150
#        14131
#        28277
#        42396
#        59802
#        73291
#        86206
#        99951
#        115033
#        127259
#
# Disc length: 1864 seconds
#
# Revision: 1
# Processed by: cddbd v1.5.2PL0 Copyright (c) Steve Scherf et al.
# Submitted via: ExactAudioCopyFreeDBPlugin 1.0
#
DISCID=9c07460a
DTITLE=Don Williams - Listen To The Radio
DYEAR=1982
DGENRE=Country
TTITLE0=Listen To The Radio
TTITLE1=If Hollywood Don't Need You
TTITLE2=Don't Stop Loving Me Now
TTITLE3=Only Love
TTITLE4=Fool, Fool Heart
TTITLE5=Mistakes
TTITLE6=I Can't Get To You From Here
TTITLE7=Standin' In A Sea Of Teardrops
TTITLE8=If She Just Helps Me Get Over You
TTITLE9=Help Yourselves To Each Other
EXTD=
EXTT0=
EXTT1=
EXTT2=
EXTT3=
EXTT4=
EXTT5=
EXTT6=
EXTT7=
EXTT8=
EXTT9=
PLAYORDER=
